<svg width="67" height="67" viewBox="0 0 67 67" fill="none" xmlns="http://www.w3.org/2000/svg">
<path d="M38.0525 12.6826H44.3997V15.8458H47.5629V19.0298L50.7469 19.0298V25.377H53.9101L53.9101 41.2138H50.7469V47.5611H47.5629V50.7451H44.3997V53.9083L38.0525 53.9083V57.0715H22.1948V60.2555L44.3997 60.2555V57.0715H50.7469V53.9083H53.9101V50.7451H57.0941V47.5611H60.2573V41.2138H63.4205L63.4205 25.377H60.2573V19.0298H57.0941V15.8458H53.9101V12.6826L50.7469 12.6826V9.5194H44.3997V6.33539L22.1948 6.33539V9.5194L38.0525 9.5194V12.6826Z" fill="black"/>
<path d="M50.7468 25.3771H47.5627V41.2139H50.7468V25.3771Z" fill="black"/>
<path d="M47.5625 41.2141H44.3993V44.3982H47.5625V41.2141Z" fill="black"/>
<path d="M47.5625 22.1936H44.3993V25.3776H47.5625V22.1936Z" fill="black"/>
<path d="M44.3998 44.3981H41.2366V47.5613H44.3998V44.3981Z" fill="black"/>
<path d="M44.3998 19.0303H41.2366V22.1935H44.3998V19.0303Z" fill="black"/>
<path d="M41.236 47.5609H38.052V50.7449H41.236V47.5609Z" fill="black"/>
<path d="M41.236 15.8459H38.052V19.03H41.236V15.8459Z" fill="black"/>
<path d="M38.0525 50.7458H22.1948V53.909H38.0525V50.7458Z" fill="black"/>
<path d="M38.0524 34.8876H34.8892V41.214H38.0524V34.8876Z" fill="black"/>
<path d="M38.0524 25.3776H34.8892V28.5408H38.0524V25.3776Z" fill="black"/>
<path d="M38.0525 12.6826L22.1948 12.6826V15.8458L38.0525 15.8458V12.6826Z" fill="black"/>
<path d="M28.542 44.3979V47.5611H31.7052V44.3979H34.8892V41.2139H31.7052V34.8875H34.8892V31.7035H31.7052V25.3771H34.8892V22.1931H31.7052V19.0299H28.542V22.1931H25.3788V25.3771H28.542L28.542 31.7035H25.3788V34.8875H28.542V41.2139H25.3788V44.3979H28.542Z" fill="black"/>
<path d="M25.3788 38.0508H22.1948V41.214H25.3788V38.0508Z" fill="black"/>
<path d="M25.3788 25.3776H22.1948V31.704H25.3788V25.3776Z" fill="black"/>
<path d="M22.1948 53.9081H15.8684V57.0713H22.1948V53.9081Z" fill="black"/>
<path d="M22.1947 47.5609H19.0315V50.7449H22.1947V47.5609Z" fill="black"/>
<path d="M22.1944 15.8463H19.0312V19.0304H22.1944V15.8463Z" fill="black"/>
<path d="M22.1948 9.51932L15.8684 9.51932V12.6825H22.1948V9.51932Z" fill="black"/>
<path d="M19.0316 44.3981H15.8684V47.5613H19.0316V44.3981Z" fill="black"/>
<path d="M19.0316 19.0299H15.8684V22.1931H19.0316V19.0299Z" fill="black"/>
<path d="M15.8685 50.7458H12.6844V53.909H15.8685V50.7458Z" fill="black"/>
<path d="M15.8685 41.2141H12.6844V44.3982H15.8685V41.2141Z" fill="black"/>
<path d="M15.8685 22.1931H12.6844V25.3771H15.8685V22.1931Z" fill="black"/>
<path d="M15.8681 12.6831H12.6841V15.8463H15.8681V12.6831Z" fill="black"/>
<path d="M12.6843 47.5609H9.52112V50.7449H12.6843V47.5609Z" fill="black"/>
<path d="M12.6843 25.3771H9.52112L9.52112 41.2139H12.6843L12.6843 25.3771Z" fill="black"/>
<path d="M12.6841 15.8463H9.52087V19.0304H12.6841V15.8463Z" fill="black"/>
<path d="M9.52117 41.2141H6.33716L6.33716 47.5614H9.52117V41.2141Z" fill="black"/>
<path d="M9.52117 19.0299H6.33716L6.33716 25.3771H9.52117V19.0299Z" fill="black"/>
<path d="M6.33703 25.3771H3.17383L3.17383 41.2139H6.33703L6.33703 25.3771Z" fill="black"/>
</svg>
