<svg width="67" height="67" viewBox="0 0 67 67" fill="none" xmlns="http://www.w3.org/2000/svg">
<g clip-path="url(#clip0_1168_2830)">
<path d="M66.5938 60.246H63.4306V66.5932H66.5938V60.246Z" fill="black"/>
<path d="M66.5938 22.2044H63.4306V25.3676H66.5938V22.2044Z" fill="black"/>
<path d="M63.4303 53.9194H60.2671V60.2458H63.4303V53.9194Z" fill="black"/>
<path d="M63.4303 19.0206H60.2671V22.2046H63.4303V19.0206Z" fill="black"/>
<path d="M60.2671 47.5722H57.0831V53.9194H60.2671V47.5722Z" fill="black"/>
<path d="M63.4303 25.3678H53.9199V28.5518H63.4303V25.3678Z" fill="black"/>
<path d="M60.2673 15.8572H57.0833V19.0204H60.2673V15.8572Z" fill="black"/>
<path d="M53.9202 41.2252V34.878H50.757L50.757 28.5516H47.573V22.2044H44.4098V19.0204H41.2258V12.694L53.9202 12.694V9.50996H50.757V6.34676H47.573V9.50996H41.2258V3.18355L44.4098 3.18355V-0.000457764L38.0626 -0.000457764V19.0204H34.8994V22.2044L31.7154 22.2044L31.7154 28.5516H28.5522L28.5522 34.878H25.3682V41.2252H22.205V47.5724H28.5522V50.7356H38.0626V47.5724L47.573 47.5724V44.4092H53.9202V47.5724H57.0834V41.2252H53.9202ZM34.8994 47.5724H31.7154V44.4092H34.8994V47.5724ZM44.4098 44.4092L41.2258 44.4092V41.2252H38.0626V38.062H41.2258V41.2252L44.4098 41.2252V44.4092ZM44.4098 31.7148H41.2258V25.3676H38.0626V22.2044H41.2258V25.3676H44.4098V31.7148ZM50.757 41.2252H47.573V38.062H50.757V41.2252Z" fill="black"/>
<path d="M57.0831 19.0206H53.9199V22.2046H57.0831V19.0206Z" fill="black"/>
<path d="M53.9203 22.2045H50.7571V25.3677H53.9203V22.2045Z" fill="black"/>
<path d="M47.573 3.18341L44.4098 3.18341V6.34661H47.573V3.18341Z" fill="black"/>
<path d="M22.2048 47.5722H19.0416V53.9194H22.2048V47.5722Z" fill="black"/>
<path d="M22.2048 12.6939H19.0416V15.8571H22.2048V12.6939Z" fill="black"/>
<path d="M19.0417 53.9194H15.8577L15.8577 60.2458H19.0417V53.9194Z" fill="black"/>
<path d="M19.0417 9.50995H15.8577V12.694H19.0417V9.50995Z" fill="black"/>
<path d="M15.8577 60.246H12.6945L12.6945 66.5932H15.8577V60.246Z" fill="black"/>
<path d="M15.8577 50.7357H12.6945V53.9197H15.8577V50.7357Z" fill="black"/>
<path d="M19.0416 15.8572L3.18396 15.8572L3.18396 19.0204L19.0416 19.0204V15.8572Z" fill="black"/>
<path d="M15.8577 6.34674L9.53125 6.34674V9.50994H15.8577V6.34674Z" fill="black"/>
<path d="M12.6945 47.5722H9.53125V50.7354H12.6945V47.5722Z" fill="black"/>
<path d="M9.53118 50.7357H6.34717L6.34717 53.9197H9.53118V50.7357Z" fill="black"/>
<path d="M9.53117 9.50995L3.18396 9.50995L3.18396 12.694H9.53117V9.50995Z" fill="black"/>
<path d="M6.34716 53.9194H3.18396L3.18396 60.2458H6.34716L6.34716 53.9194Z" fill="black"/>
<path d="M3.18401 60.246H0L0 66.5932H3.18401L3.18401 60.246Z" fill="black"/>
<path d="M3.18401 12.6939H0L0 15.8571H3.18401L3.18401 12.6939Z" fill="black"/>
</g>
<defs>
<clipPath id="clip0_1168_2830">
<rect width="66.5937" height="66.5937" fill="white"/>
</clipPath>
</defs>
</svg>
