<svg width="67" height="67" viewBox="0 0 67 67" fill="none" xmlns="http://www.w3.org/2000/svg">
<path d="M60.2479 41.2264H57.0847V57.084H60.2479V41.2264Z" fill="black"/>
<path d="M57.0851 57.0856H53.9219V60.2696H57.0851V57.0856Z" fill="black"/>
<path d="M57.0851 34.8811H53.9219V41.2283H57.0851V34.8811Z" fill="black"/>
<path d="M53.9213 6.34721H50.7373V34.8785H53.9213V6.34721Z" fill="black"/>
<path d="M53.9208 60.272H47.5736V63.4352H53.9208V60.272Z" fill="black"/>
<path d="M50.7368 3.18863H47.5736V6.35183H50.7368V3.18863Z" fill="black"/>
<path d="M47.5744 0.00196838H41.2272V3.18598H47.5744V0.00196838Z" fill="black"/>
<path d="M47.5735 63.4307H19.0422V66.5939H47.5735V63.4307Z" fill="black"/>
<path d="M44.4117 38.0679H41.2277V41.2311H44.4117V38.0679Z" fill="black"/>
<path d="M47.5745 9.51196H41.2273V28.5536H47.5745V9.51196Z" fill="black"/>
<path d="M41.2273 47.5774H38.0641V50.7406H41.2273V47.5774Z" fill="black"/>
<path d="M41.2273 3.18863H38.0641V6.35183H41.2273V3.18863Z" fill="black"/>
<path d="M38.0641 6.34721H34.8801V31.7153H38.0641V6.34721Z" fill="black"/>
<path d="M38.0636 50.7347H31.7164V53.9187H38.0636V50.7347Z" fill="black"/>
<path d="M31.7169 47.5736H34.8801V44.4104H38.0641V41.2264H28.5537V44.4104H31.7169V47.5736Z" fill="black"/>
<path d="M34.8796 31.7164H31.7164V34.8796H34.8796V31.7164Z" fill="black"/>
<path d="M31.7169 6.34721H28.5537V31.7153H31.7169V6.34721Z" fill="black"/>
<path d="M28.5527 3.18863H25.3687V6.35183H28.5527V3.18863Z" fill="black"/>
<path d="M25.3704 38.0679H22.2072V41.2311H25.3704V38.0679Z" fill="black"/>
<path d="M25.3686 0.00196838H19.0422V3.18598H25.3686V0.00196838Z" fill="black"/>
<path d="M25.3682 9.51196H19.0417V28.5536H25.3682V9.51196Z" fill="black"/>
<path d="M19.0436 60.272H12.6964V63.4352H19.0436V60.272Z" fill="black"/>
<path d="M19.0433 3.18863H15.8593V6.35183H19.0433V3.18863Z" fill="black"/>
<path d="M15.8596 6.34721H12.6964V34.8785H15.8596V6.34721Z" fill="black"/>
<path d="M12.696 57.0856H9.51196V60.2696H12.696V57.0856Z" fill="black"/>
<path d="M12.695 34.8811H9.51099V41.2283H12.695V34.8811Z" fill="black"/>
<path d="M9.51147 41.2264H6.34827V57.084H9.51147V41.2264Z" fill="black"/>
</svg>
