<svg width="67" height="67" viewBox="0 0 67 67" fill="none" xmlns="http://www.w3.org/2000/svg">
<g clip-path="url(#clip0_1168_2769)">
<path d="M66.5938 60.2465H60.2466V63.4305H66.5938V60.2465Z" fill="black"/>
<path d="M60.2464 63.4306H57.0833V66.5938H60.2464V63.4306Z" fill="black"/>
<path d="M57.0833 41.2259H53.8993V44.3891H57.0833V47.5731H60.2465V31.7155H57.0833V41.2259Z" fill="black"/>
<path d="M57.0834 60.2465H50.7362V63.4305H57.0834V60.2465Z" fill="black"/>
<path d="M57.0833 28.5521H53.8993V31.7153H57.0833V28.5521Z" fill="black"/>
<path d="M50.736 57.0834H44.3888V60.2466H50.736V57.0834Z" fill="black"/>
<path d="M47.5725 44.389H50.7357V41.2258H53.8989L53.8989 38.0626H50.7357V28.5522H53.8989V25.3682H50.7357V15.8578H47.5725L47.5725 44.389Z" fill="black"/>
<path d="M44.3885 63.4304H41.2253V66.5936H44.3885V63.4304Z" fill="black"/>
<path d="M44.3885 38.0627H41.2253V41.2259H44.3885V38.0627Z" fill="black"/>
<path d="M44.3885 31.7155H41.2253V34.8787H44.3885V31.7155Z" fill="black"/>
<path d="M41.2256 57.0834H38.0416V63.4306H41.2256V57.0834Z" fill="black"/>
<path d="M41.2253 50.736H28.5309V53.92H41.2253V50.736Z" fill="black"/>
<path d="M41.2256 3.16324L38.0416 3.16324V6.34725H41.2256V3.16324Z" fill="black"/>
<path d="M38.0417 6.10352e-05L31.7153 6.10352e-05V3.16326L38.0417 3.16326V6.10352e-05Z" fill="black"/>
<path d="M41.2253 19.021L38.0413 19.021V15.8578L31.7149 15.8578V19.021H34.8781V22.205H31.7149V19.021H28.5309V25.3682H31.7149L31.7149 28.5522H38.0413V25.3682H41.2253V19.021Z" fill="black"/>
<path d="M31.7149 57.0833H28.5309V63.4305H31.7149V57.0833Z" fill="black"/>
<path d="M22.1836 47.5728H25.3676V50.736H28.5308V47.5728H41.2252V50.736H44.3884V47.5728L47.5724 47.5728V44.3888L22.1836 44.3888V47.5728Z" fill="black"/>
<path d="M31.7149 3.16336L28.5309 3.16336V6.34737H31.7149V3.16336Z" fill="black"/>
<path d="M28.5314 63.4304H25.3682V66.5936H28.5314V63.4304Z" fill="black"/>
<path d="M25.3682 57.0833H19.021V60.2464H25.3682V57.0833Z" fill="black"/>
<path d="M28.5308 9.51043V6.34723H25.3676V9.51043H22.1836V15.8576H25.3676V12.6944L44.3884 12.6944V15.8576H47.5724V9.51043H44.3884V6.34723L41.2252 6.34723V9.51043L28.5308 9.51043Z" fill="black"/>
<path d="M22.1841 15.8577L19.0209 15.8577V25.3681H15.8577V28.5521H19.0209V38.0625H15.8577V41.2257H19.0209V44.3889H22.1841L22.1841 15.8577Z" fill="black"/>
<path d="M19.0209 60.2465H12.6737V63.4305H19.0209V60.2465Z" fill="black"/>
<path d="M15.8577 28.5522H12.6737V31.7154H15.8577V28.5522Z" fill="black"/>
<path d="M12.6737 63.4306H9.5105V66.5938H12.6737V63.4306Z" fill="black"/>
<path d="M12.6737 31.7155H9.5105L9.5105 47.5731H12.6737L12.6737 44.3891H15.8577V41.2259H12.6737L12.6737 31.7155Z" fill="black"/>
<path d="M9.51042 60.2465H3.16321L3.16321 63.4305H9.51042V60.2465Z" fill="black"/>
<path d="M3.1632 63.4306H0L0 66.5938H3.1632L3.1632 63.4306Z" fill="black"/>
</g>
<defs>
<clipPath id="clip0_1168_2769">
<rect width="66.5937" height="66.5937" fill="white"/>
</clipPath>
</defs>
</svg>
