<svg width="67" height="67" viewBox="0 0 67 67" fill="none" xmlns="http://www.w3.org/2000/svg">
<path d="M38.0525 12.6831H44.3997V15.8463H47.5629V19.0303H50.7469V25.3775H53.9101V41.2143H50.7469V47.5616H47.5629V50.7456H44.3997V53.9088H38.0525V57.072H22.1948V60.2561H44.3997V57.072H50.7469V53.9088H53.9101V50.7456H57.0941V47.5616H60.2573V41.2143H63.4205V25.3775H60.2573V19.0303H57.0941V15.8463H53.9101V12.6831H50.7469V9.51995H44.3997V6.33594H22.1948V9.51995H38.0525V12.6831Z" fill="#1A5F7A"/>
<path d="M50.7466 25.3789H47.5625V41.2157H50.7466V25.3789Z" fill="#1A5F7A"/>
<path d="M47.5626 41.2148H44.3994V44.3989H47.5626V41.2148Z" fill="#1A5F7A"/>
<path d="M47.5626 22.1953H44.3994V25.3793H47.5626V22.1953Z" fill="#1A5F7A"/>
<path d="M44.4 44.3984H41.2368V47.5616H44.4V44.3984Z" fill="#1A5F7A"/>
<path d="M44.4 19.0312H41.2368V22.1945H44.4V19.0312Z" fill="#1A5F7A"/>
<path d="M41.2358 47.5625H38.0518V50.7465H41.2358V47.5625Z" fill="#1A5F7A"/>
<path d="M41.2358 15.8477H38.0518V19.0318H41.2358V15.8477Z" fill="#1A5F7A"/>
<path d="M38.0525 50.7461H22.1948V53.9093H38.0525V50.7461Z" fill="#1A5F7A"/>
<path d="M38.0524 34.8867H34.8892V41.2131H38.0524V34.8867Z" fill="#1A5F7A"/>
<path d="M38.0524 25.3789H34.8892V28.5421H38.0524V25.3789Z" fill="#1A5F7A"/>
<path d="M38.0525 12.6836H22.1948V15.8468H38.0525V12.6836Z" fill="#1A5F7A"/>
<path d="M28.5421 44.3993V47.5625H31.7053V44.3993H34.8893V41.2153H31.7053V34.8889H34.8893V31.7049H31.7053V25.3785H34.8893V22.1945H31.7053V19.0312H28.5421V22.1945H25.3789V25.3785H28.5421V31.7049H25.3789V34.8889H28.5421V41.2153H25.3789V44.3993H28.5421Z" fill="#1A5F7A"/>
<path d="M25.3788 38.0508H22.1948V41.214H25.3788V38.0508Z" fill="#1A5F7A"/>
<path d="M25.3788 25.3789H22.1948V31.7053H25.3788V25.3789Z" fill="#1A5F7A"/>
<path d="M22.1946 53.9062H15.8682V57.0695H22.1946V53.9062Z" fill="#1A5F7A"/>
<path d="M22.1949 47.5625H19.0317V50.7465H22.1949V47.5625Z" fill="#1A5F7A"/>
<path d="M22.1945 15.8477H19.0312V19.0318H22.1945V15.8477Z" fill="#1A5F7A"/>
<path d="M22.1946 9.51953H15.8682V12.6827H22.1946V9.51953Z" fill="#1A5F7A"/>
<path d="M19.0314 44.3984H15.8682V47.5616H19.0314V44.3984Z" fill="#1A5F7A"/>
<path d="M19.0314 19.0312H15.8682V22.1945H19.0314V19.0312Z" fill="#1A5F7A"/>
<path d="M15.8687 50.7461H12.6846V53.9093H15.8687V50.7461Z" fill="#1A5F7A"/>
<path d="M15.8687 41.2148H12.6846V44.3989H15.8687V41.2148Z" fill="#1A5F7A"/>
<path d="M15.8687 22.1914H12.6846V25.3754H15.8687V22.1914Z" fill="#1A5F7A"/>
<path d="M15.8681 12.6836H12.6841V15.8468H15.8681V12.6836Z" fill="#1A5F7A"/>
<path d="M12.6842 47.5625H9.521V50.7465H12.6842V47.5625Z" fill="#1A5F7A"/>
<path d="M12.6842 25.3789H9.521V41.2157H12.6842V25.3789Z" fill="#1A5F7A"/>
<path d="M12.6842 15.8477H9.521V19.0318H12.6842V15.8477Z" fill="#1A5F7A"/>
<path d="M9.52141 41.2148H6.3374V47.5621H9.52141V41.2148Z" fill="#1A5F7A"/>
<path d="M9.52141 19.0312H6.3374V25.3785H9.52141V19.0312Z" fill="#1A5F7A"/>
<path d="M6.33703 25.3789H3.17383V41.2157H6.33703V25.3789Z" fill="#1A5F7A"/>
</svg>
