<svg width="67" height="67" viewBox="0 0 67 67" fill="none" xmlns="http://www.w3.org/2000/svg">
<g clip-path="url(#clip0_872_1165)">
<mask id="mask0_872_1165" style="mask-type:luminance" maskUnits="userSpaceOnUse" x="0" y="0" width="67" height="67">
<path d="M66.5937 0H0V66.5937H66.5937V0Z" fill="white"/>
</mask>
<g mask="url(#mask0_872_1165)">
<path d="M66.5939 60.2461H63.4307V66.5933H66.5939V60.2461Z" fill="#1A5F7A"/>
<path d="M66.5939 22.2031H63.4307V25.3663H66.5939V22.2031Z" fill="#1A5F7A"/>
<path d="M63.4303 53.918H60.2671V60.2444H63.4303V53.918Z" fill="#1A5F7A"/>
<path d="M63.4303 19.0195H60.2671V22.2035H63.4303V19.0195Z" fill="#1A5F7A"/>
<path d="M60.267 47.5742H57.083V53.9214H60.267V47.5742Z" fill="#1A5F7A"/>
<path d="M63.4303 25.3672H53.9199V28.5512H63.4303V25.3672Z" fill="#1A5F7A"/>
<path d="M60.2675 15.8594H57.0835V19.0226H60.2675V15.8594Z" fill="#1A5F7A"/>
<path d="M53.9203 41.2257V34.8785H50.7571V28.5521H47.5731V22.2049H44.4099V19.0209H41.2259V12.6945H53.9203V9.51042H50.7571V6.34722H47.5731V9.51042H41.2259V3.18401H44.4099V0H38.0627V19.0209H34.8995V22.2049H31.7155V28.5521H28.5523V34.8785H25.3683V41.2257H22.2051V47.5729H28.5523V50.7361H38.0627V47.5729H47.5731V44.4097H53.9203V47.5729H57.0835V41.2257H53.9203ZM34.8995 47.5729H31.7155V44.4097H34.8995V47.5729ZM44.4099 44.4097H41.2259V41.2257H38.0627V38.0625H41.2259V41.2257H44.4099V44.4097ZM44.4099 31.7153H41.2259V25.3681H38.0627V22.2049H41.2259V25.3681H44.4099V31.7153ZM50.7571 41.2257H47.5731V38.0625H50.7571V41.2257Z" fill="#1A5F7A"/>
<path d="M57.0831 19.0195H53.9199V22.2035H57.0831V19.0195Z" fill="#1A5F7A"/>
<path d="M53.9205 22.2031H50.7573V25.3663H53.9205V22.2031Z" fill="#1A5F7A"/>
<path d="M47.5729 3.18359H44.4097V6.34679H47.5729V3.18359Z" fill="#1A5F7A"/>
<path d="M22.2047 47.5742H19.0415V53.9214H22.2047V47.5742Z" fill="#1A5F7A"/>
<path d="M22.2047 12.6953H19.0415V15.8585H22.2047V12.6953Z" fill="#1A5F7A"/>
<path d="M19.0419 53.918H15.8579V60.2444H19.0419V53.918Z" fill="#1A5F7A"/>
<path d="M19.0419 9.51172H15.8579V12.6958H19.0419V9.51172Z" fill="#1A5F7A"/>
<path d="M15.8575 60.2461H12.6943V66.5933H15.8575V60.2461Z" fill="#1A5F7A"/>
<path d="M15.8575 50.7344H12.6943V53.9184H15.8575V50.7344Z" fill="#1A5F7A"/>
<path d="M19.0417 15.8594H3.18408V19.0226H19.0417V15.8594Z" fill="#1A5F7A"/>
<path d="M15.8577 6.34766H9.53125V9.51086H15.8577V6.34766Z" fill="#1A5F7A"/>
<path d="M12.6945 47.5742H9.53125V50.7374H12.6945V47.5742Z" fill="#1A5F7A"/>
<path d="M9.53118 50.7344H6.34717V53.9184H9.53118V50.7344Z" fill="#1A5F7A"/>
<path d="M9.53129 9.51172H3.18408V12.6958H9.53129V9.51172Z" fill="#1A5F7A"/>
<path d="M6.34728 53.918H3.18408V60.2444H6.34728V53.918Z" fill="#1A5F7A"/>
<path d="M3.18401 60.2461H0V66.5933H3.18401V60.2461Z" fill="#1A5F7A"/>
<path d="M3.18401 12.6953H0V15.8585H3.18401V12.6953Z" fill="#1A5F7A"/>
</g>
</g>
<defs>
<clipPath id="clip0_872_1165">
<rect width="67" height="67" fill="white"/>
</clipPath>
</defs>
</svg>
