<svg width="67" height="67" viewBox="0 0 67 67" fill="none" xmlns="http://www.w3.org/2000/svg">
<path d="M60.2477 41.2266H57.0845V57.0842H60.2477V41.2266Z" fill="#1A5F7A"/>
<path d="M57.0851 57.0859H53.9219V60.2699H57.0851V57.0859Z" fill="#1A5F7A"/>
<path d="M57.0851 34.8828H53.9219V41.23H57.0851V34.8828Z" fill="#1A5F7A"/>
<path d="M53.9213 6.34766H50.7373V34.8789H53.9213V6.34766Z" fill="#1A5F7A"/>
<path d="M53.9209 60.2734H47.5737V63.4366H53.9209V60.2734Z" fill="#1A5F7A"/>
<path d="M50.7369 3.1875H47.5737V6.3507H50.7369V3.1875Z" fill="#1A5F7A"/>
<path d="M47.5743 0.00390625H41.2271V3.18792H47.5743V0.00390625Z" fill="#1A5F7A"/>
<path d="M47.5733 63.4297H19.042V66.5929H47.5733V63.4297Z" fill="#1A5F7A"/>
<path d="M44.4115 38.0664H41.2275V41.2296H44.4115V38.0664Z" fill="#1A5F7A"/>
<path d="M47.5747 9.51172H41.2275V28.5534H47.5747V9.51172Z" fill="#1A5F7A"/>
<path d="M41.2272 47.5781H38.064V50.7413H41.2272V47.5781Z" fill="#1A5F7A"/>
<path d="M41.2272 3.1875H38.064V6.3507H41.2272V3.1875Z" fill="#1A5F7A"/>
<path d="M38.0639 6.34766H34.8799V31.7157H38.0639V6.34766Z" fill="#1A5F7A"/>
<path d="M38.0635 50.7344H31.7163V53.9184H38.0635V50.7344Z" fill="#1A5F7A"/>
<path d="M31.7169 47.5738H34.8801V44.4106H38.0641V41.2266H28.5537V44.4106H31.7169V47.5738Z" fill="#1A5F7A"/>
<path d="M34.8795 31.7148H31.7163V34.878H34.8795V31.7148Z" fill="#1A5F7A"/>
<path d="M31.7169 6.34766H28.5537V31.7157H31.7169V6.34766Z" fill="#1A5F7A"/>
<path d="M28.5527 3.1875H25.3687V6.3507H28.5527V3.1875Z" fill="#1A5F7A"/>
<path d="M25.3702 38.0664H22.207V41.2296H25.3702V38.0664Z" fill="#1A5F7A"/>
<path d="M25.3684 0.00390625H19.042V3.18792H25.3684V0.00390625Z" fill="#1A5F7A"/>
<path d="M25.368 9.51172H19.0415V28.5534H25.368V9.51172Z" fill="#1A5F7A"/>
<path d="M19.0435 60.2734H12.6963V63.4366H19.0435V60.2734Z" fill="#1A5F7A"/>
<path d="M19.0434 3.1875H15.8594V6.3507H19.0434V3.1875Z" fill="#1A5F7A"/>
<path d="M15.8595 6.34766H12.6963V34.8789H15.8595V6.34766Z" fill="#1A5F7A"/>
<path d="M12.6958 57.0859H9.51172V60.2699H12.6958V57.0859Z" fill="#1A5F7A"/>
<path d="M12.6952 34.8828H9.51123V41.23H12.6952V34.8828Z" fill="#1A5F7A"/>
<path d="M9.51134 41.2266H6.34814V57.0842H9.51134V41.2266Z" fill="#1A5F7A"/>
</svg>
