<svg width="67" height="67" viewBox="0 0 67 67" fill="none" xmlns="http://www.w3.org/2000/svg">
<g clip-path="url(#clip0_872_1195)">
<mask id="mask0_872_1195" style="mask-type:luminance" maskUnits="userSpaceOnUse" x="0" y="0" width="67" height="67">
<path d="M66.5937 0H0V66.5937H66.5937V0Z" fill="white"/>
</mask>
<g mask="url(#mask0_872_1195)">
<path d="M66.5938 60.2461H60.2466V63.4301H66.5938V60.2461Z" fill="#1A5F7A"/>
<path d="M60.2466 63.4297H57.0835V66.5929H60.2466V63.4297Z" fill="#1A5F7A"/>
<path d="M57.0834 41.2252H53.8994V44.3884H57.0834V47.5724H60.2466V31.7148H57.0834V41.2252Z" fill="#1A5F7A"/>
<path d="M57.0835 60.2461H50.7363V63.4301H57.0835V60.2461Z" fill="#1A5F7A"/>
<path d="M57.0834 28.5508H53.8994V31.714H57.0834V28.5508Z" fill="#1A5F7A"/>
<path d="M50.7359 57.082H44.3887V60.2452H50.7359V57.082Z" fill="#1A5F7A"/>
<path d="M47.5723 44.3906H50.7355V41.2274H53.8987V38.0642H50.7355V28.5538H53.8987V25.3698H50.7355V15.8594H47.5723V44.3906Z" fill="#1A5F7A"/>
<path d="M44.3883 63.4297H41.2251V66.5929H44.3883V63.4297Z" fill="#1A5F7A"/>
<path d="M44.3883 38.0625H41.2251V41.2257H44.3883V38.0625Z" fill="#1A5F7A"/>
<path d="M44.3883 31.7148H41.2251V34.878H44.3883V31.7148Z" fill="#1A5F7A"/>
<path d="M41.2255 57.082H38.0415V63.4292H41.2255V57.082Z" fill="#1A5F7A"/>
<path d="M41.2252 50.7344H28.5308V53.9184H41.2252V50.7344Z" fill="#1A5F7A"/>
<path d="M41.2255 3.16406H38.0415V6.34807H41.2255V3.16406Z" fill="#1A5F7A"/>
<path d="M38.0417 0H31.7153V3.1632H38.0417V0Z" fill="#1A5F7A"/>
<path d="M41.2252 19.0226H38.0412V15.8594H31.7148V19.0226H34.878V22.2066H31.7148V19.0226H28.5308V25.3698H31.7148V28.5538H38.0412V25.3698H41.2252V19.0226Z" fill="#1A5F7A"/>
<path d="M31.7148 57.082H28.5308V63.4292H31.7148V57.082Z" fill="#1A5F7A"/>
<path d="M22.1836 47.5746H25.3676V50.7378H28.5308V47.5746H41.2252V50.7378H44.3884V47.5746H47.5724V44.3906H22.1836V47.5746Z" fill="#1A5F7A"/>
<path d="M31.7148 3.16406H28.5308V6.34807H31.7148V3.16406Z" fill="#1A5F7A"/>
<path d="M28.5314 63.4297H25.3682V66.5929H28.5314V63.4297Z" fill="#1A5F7A"/>
<path d="M25.3682 57.082H19.021V60.2451H25.3682V57.082Z" fill="#1A5F7A"/>
<path d="M28.5308 9.51086V6.34766H25.3676V9.51086H22.1836V15.858H25.3676V12.6948H44.3884V15.858H47.5724V9.51086H44.3884V6.34766H41.2252V9.51086H28.5308Z" fill="#1A5F7A"/>
<path d="M22.1843 15.8594H19.0211V25.3698H15.8579V28.5538H19.0211V38.0642H15.8579V41.2274H19.0211V44.3906H22.1843V15.8594Z" fill="#1A5F7A"/>
<path d="M19.021 60.2461H12.6738V63.4301H19.021V60.2461Z" fill="#1A5F7A"/>
<path d="M15.8578 28.5508H12.6738V31.714H15.8578V28.5508Z" fill="#1A5F7A"/>
<path d="M12.6739 63.4297H9.51074V66.5929H12.6739V63.4297Z" fill="#1A5F7A"/>
<path d="M12.6739 31.7148H9.51074V47.5724H12.6739V44.3884H15.8579V41.2252H12.6739V31.7148Z" fill="#1A5F7A"/>
<path d="M9.5103 60.2461H3.16309V63.4301H9.5103V60.2461Z" fill="#1A5F7A"/>
<path d="M3.1632 63.4297H0V66.5929H3.1632V63.4297Z" fill="#1A5F7A"/>
</g>
</g>
<defs>
<clipPath id="clip0_872_1195">
<rect width="67" height="67" fill="white"/>
</clipPath>
</defs>
</svg>
